<svg width="48" height="48" viewBox="0 0 48 48" fill="none" xmlns="http://www.w3.org/2000/svg">
<path d="M0 0H48V48H0V0Z" fill="black"/>
<path d="M13.0875 22.0969C13.05 23.0344 12.9938 23.8781 12.9 24.7031C12.7313 26.1094 11.9813 27.2156 10.425 27.2156C8.83125 27.2156 8.08125 26.1094 7.93125 24.7031C7.74375 23.1094 7.65 21.0656 7.65 19.1906C7.65 17.3156 7.6875 15.6281 7.875 14.0531C8.1375 11.6531 11.2125 11.0344 13.8937 11.0156C18 10.9969 19.5938 11.7656 19.5938 13.8656C19.5938 15.4406 18.9375 16.2844 17.7563 16.0781C17.25 16.0031 16.5938 15.9469 16.125 15.9469C14.775 15.9469 13.8562 16.1344 13.05 16.4531C12.6562 16.6219 12.7875 17.1281 13.2188 16.9781C14.8687 16.3781 17.3062 16.3219 18.3188 16.9594C19.1813 17.5219 19.5938 18.1406 19.5938 19.5469C19.5938 20.9344 19.1813 21.5906 18.3188 22.1156C17.3062 22.7531 14.7563 22.6969 13.0875 22.0969Z" fill="url(#paint0_linear_428_7928)"/>
<path d="M23.5519 16.2281C22.2769 16.2281 21.0957 15.2906 21.0957 13.6219C21.0957 12.0656 22.2957 11.0156 23.5519 11.0156C24.9207 11.0156 26.0082 12.3281 26.0082 13.6781C26.0082 15.0656 24.9769 16.2281 23.5519 16.2281ZM21.0394 25.6594C20.6832 23.4469 20.6832 20.9906 21.0394 18.7781C21.1707 17.9156 21.9582 17.2031 23.5519 17.2031C25.0894 17.2031 25.8582 17.9156 26.0082 18.7781C26.3832 20.9906 26.3832 23.4469 26.0082 25.6594C25.8582 26.5406 25.0894 27.2344 23.5519 27.2344C21.9582 27.2344 21.1707 26.5406 21.0394 25.6594Z" fill="url(#paint1_linear_428_7928)"/>
<path d="M31.2831 17.5406H30.0456C28.2456 17.5406 27.0643 16.3031 27.0643 14.4844C27.0643 12.5906 28.2456 11.4844 30.0456 11.3531C31.4893 11.2406 32.7268 11.2031 33.9456 11.2031C35.1456 11.2031 36.3643 11.2594 37.7518 11.3531C39.5331 11.4844 40.7331 12.6281 40.7331 14.4469C40.7331 16.2656 39.5331 17.5406 37.7518 17.5406H37.1331C37.0206 17.0344 36.8331 16.4531 36.6831 16.0031C36.5518 15.6656 36.0456 15.7969 36.1393 16.0406C36.9643 18.5531 37.1893 22.0406 37.0581 24.1594C36.9081 25.7156 35.9893 27.2344 33.9081 27.2344C31.8643 27.2344 30.8706 25.7156 30.7581 24.1594C30.6081 22.0406 30.7393 19.8281 31.2831 17.5406Z" fill="url(#paint2_linear_428_7928)"/>
<path d="M38.78 34.2373C39.4426 35.3752 38.5459 36.6989 37.2291 36.6989H10.4463C9.12953 36.6989 8.23289 35.3752 8.8955 34.2373C11.889 29.0962 17.4598 25.6406 23.8377 25.6406C30.2156 25.6406 35.7864 29.0962 38.78 34.2373Z" fill="url(#paint3_linear_428_7928)"/>
<defs>
<linearGradient id="paint0_linear_428_7928" x1="0" y1="24" x2="48" y2="24" gradientUnits="userSpaceOnUse">
<stop stop-color="#00FF85"/>
<stop offset="1" stop-color="#3994FF"/>
</linearGradient>
<linearGradient id="paint1_linear_428_7928" x1="0" y1="24" x2="48" y2="24" gradientUnits="userSpaceOnUse">
<stop stop-color="#00FF85"/>
<stop offset="1" stop-color="#3994FF"/>
</linearGradient>
<linearGradient id="paint2_linear_428_7928" x1="0" y1="24" x2="48" y2="24" gradientUnits="userSpaceOnUse">
<stop stop-color="#00FF85"/>
<stop offset="1" stop-color="#3994FF"/>
</linearGradient>
<linearGradient id="paint3_linear_428_7928" x1="0" y1="24" x2="48" y2="24" gradientUnits="userSpaceOnUse">
<stop stop-color="#00FF85"/>
<stop offset="1" stop-color="#3994FF"/>
</linearGradient>
</defs>
</svg>
