<svg width="156" height="22" viewBox="0 0 156 22" fill="none" xmlns="http://www.w3.org/2000/svg">
<path d="M14.3639 0.439999V4.55H5.78395V8.99H12.2039V12.98H5.78395V21.5H0.653945V0.439999H14.3639ZM22.1902 0.439999V21.5H17.0602V0.439999H22.1902ZM41.0579 0.439999V4.55H35.4779V21.5H30.3479V4.55H24.7679V0.439999H41.0579ZM55.1199 0.439999V21.5H49.9899V0.439999H55.1199ZM66.4575 21.71C64.9175 21.71 63.5375 21.46 62.3175 20.96C61.0975 20.46 60.1175 19.72 59.3775 18.74C58.6575 17.76 58.2775 16.58 58.2375 15.2H63.6975C63.7775 15.98 64.0475 16.58 64.5075 17C64.9675 17.4 65.5675 17.6 66.3075 17.6C67.0675 17.6 67.6675 17.43 68.1075 17.09C68.5475 16.73 68.7675 16.24 68.7675 15.62C68.7675 15.1 68.5875 14.67 68.2275 14.33C67.8875 13.99 67.4575 13.71 66.9375 13.49C66.4375 13.27 65.7175 13.02 64.7775 12.74C63.4175 12.32 62.3075 11.9 61.4475 11.48C60.5875 11.06 59.8475 10.44 59.2275 9.62C58.6075 8.8 58.2975 7.73 58.2975 6.41C58.2975 4.45 59.0075 2.92 60.4275 1.82C61.8475 0.7 63.6975 0.14 65.9775 0.14C68.2975 0.14 70.1675 0.7 71.5875 1.82C73.0075 2.92 73.7675 4.46 73.8675 6.44H68.3175C68.2775 5.76 68.0275 5.23 67.5675 4.85C67.1075 4.45 66.5175 4.25 65.7975 4.25C65.1775 4.25 64.6775 4.42 64.2975 4.76C63.9175 5.08 63.7275 5.55 63.7275 6.17C63.7275 6.85 64.0475 7.38 64.6875 7.76C65.3275 8.14 66.3275 8.55 67.6875 8.99C69.0475 9.45 70.1475 9.89 70.9875 10.31C71.8475 10.73 72.5875 11.34 73.2075 12.14C73.8275 12.94 74.1375 13.97 74.1375 15.23C74.1375 16.43 73.8275 17.52 73.2075 18.5C72.6075 19.48 71.7275 20.26 70.5675 20.84C69.4075 21.42 68.0375 21.71 66.4575 21.71ZM82.4246 17.54H89.1446V21.5H77.2946V0.439999H82.4246V17.54ZM104.701 17.78H96.8414L95.5814 21.5H90.2114L97.8314 0.439999H103.771L111.391 21.5H105.961L104.701 17.78ZM103.381 13.82L100.771 6.11L98.1914 13.82H103.381ZM132.551 21.5H127.421L118.841 8.51V21.5H113.711V0.439999H118.841L127.421 13.49V0.439999H132.551V21.5ZM144.159 0.439999C146.379 0.439999 148.319 0.879999 149.979 1.76C151.639 2.64 152.919 3.88 153.819 5.48C154.739 7.06 155.199 8.89 155.199 10.97C155.199 13.03 154.739 14.86 153.819 16.46C152.919 18.06 151.629 19.3 149.949 20.18C148.289 21.06 146.359 21.5 144.159 21.5H136.269V0.439999H144.159ZM143.829 17.06C145.769 17.06 147.279 16.53 148.359 15.47C149.439 14.41 149.979 12.91 149.979 10.97C149.979 9.03 149.439 7.52 148.359 6.44C147.279 5.36 145.769 4.82 143.829 4.82H141.399V17.06H143.829Z" fill="url(#paint0_linear_428_7930)"/>
<defs>
<linearGradient id="paint0_linear_428_7930" x1="-63" y1="11" x2="218" y2="11" gradientUnits="userSpaceOnUse">
<stop stop-color="#00FF85"/>
<stop offset="1" stop-color="#3994FF"/>
</linearGradient>
</defs>
</svg>
