<svg width="84" height="84" viewBox="0 0 84 84" fill="none" xmlns="http://www.w3.org/2000/svg">
<mask id="mask0_459_4358" style="mask-type:alpha" maskUnits="userSpaceOnUse" x="0" y="0" width="84" height="84">
<circle cx="42" cy="42" r="42" fill="#1F1F1F"/>
</mask>
<g mask="url(#mask0_459_4358)">
<circle cx="42" cy="42" r="42" fill="#1F1F1F"/>
<path fill-rule="evenodd" clip-rule="evenodd" d="M50.9857 44.473C55.2099 41.7042 58 36.928 58 31.5C58 22.9396 51.0604 16 42.5 16C33.9396 16 27 22.9396 27 31.5C27 36.7875 29.6475 41.4566 33.6892 44.254C22.2833 47.7943 14 58.4298 14 71C14 86.464 26.536 99 42 99C57.464 99 70 86.464 70 71C70 58.6791 62.042 48.2169 50.9857 44.473Z" fill="#4B4B4B"/>
</g>
</svg>
